<svg xmlns="http://www.w3.org/2000/svg" viewBox="0 0 1000 500"><defs><style>.cls-1{fill:#fff;}.cls-2{font-size:119.97px;}.cls-2,.cls-8{fill:#6c3;}.cls-2,.cls-7{font-family:Comfortaa-Regular, Comfortaa;}.cls-3{letter-spacing:-0.11em;}.cls-4{letter-spacing:-0.03em;}.cls-5{letter-spacing:-0.02em;}.cls-6{letter-spacing:-0.05em;}.cls-7{font-size:79.98px;}</style></defs><title>Combination Mark White Background</title><g id="Layer_2" data-name="Layer 2"><g id="Layer_1-2" data-name="Layer 1"><rect class="cls-1" width="1000" height="500"/><text class="cls-2" transform="translate(386.74 255.68)"><tspan class="cls-3">V</tspan><tspan x="72.7" y="0">o</tspan><tspan class="cls-4" x="153.92" y="0">l</tspan><tspan class="cls-5" x="184.15" y="0">v</tspan><tspan class="cls-6" x="248.1" y="0">o</tspan><tspan x="323.32" y="0">x</tspan></text><text class="cls-7" transform="translate(515.45 327.95)">Helios</text><path class="cls-8" d="M290,284.22a32.05,32.05,0,0,0-2.26-4.12h0l-.1-.15c-9.21-14.22-26-25.75-33.43-42.18S249.1,201,244.38,184.7v0h0a30.93,30.93,0,1,0-57.92,21.2,31.92,31.92,0,0,0,2.26,4.11h0l.1.15c9.21,14.22,26,25.76,33.42,42.19s5.15,36.74,9.87,53.06v.05h0A30.93,30.93,0,1,0,290,284.22Z"/><circle cx="300" cy="193" r="31.99"/></g></g></svg>