<svg xmlns="http://www.w3.org/2000/svg" viewBox="0 0 1000 500"><defs><style>.cls-1{font-size:119.97px;}.cls-1,.cls-7{fill:#6c3;}.cls-1,.cls-6{font-family:Comfortaa-Regular, Comfortaa;}.cls-2{letter-spacing:-0.11em;}.cls-3{letter-spacing:-0.03em;}.cls-4{letter-spacing:-0.02em;}.cls-5{letter-spacing:-0.05em;}.cls-6{font-size:79.98px;}.cls-6,.cls-8{fill:#fff;}</style></defs><title>Combination Mark Black Background</title><g id="Layer_2" data-name="Layer 2"><g id="Layer_1-2" data-name="Layer 1"><rect width="1000" height="500"/><text class="cls-1" transform="translate(386.74 255.53)"><tspan class="cls-2">V</tspan><tspan x="72.7" y="0">o</tspan><tspan class="cls-3" x="153.92" y="0">l</tspan><tspan class="cls-4" x="184.15" y="0">v</tspan><tspan class="cls-5" x="248.1" y="0">o</tspan><tspan x="323.32" y="0">x</tspan></text><text class="cls-6" transform="translate(515.45 327.8)">Helios</text><path class="cls-7" d="M290,284.07a31.92,31.92,0,0,0-2.26-4.11h0l-.1-.15c-9.21-14.22-26-25.75-33.43-42.19s-5.14-36.74-9.86-53.06v-.05h0a30.93,30.93,0,1,0-57.92,21.2,32.05,32.05,0,0,0,2.26,4.12h0l.09.14c9.21,14.23,26,25.77,33.43,42.2s5.15,36.74,9.87,53.05v0h0A30.93,30.93,0,1,0,290,284.07Z"/><circle class="cls-8" cx="300" cy="193" r="31.99"/></g></g></svg>