<svg xmlns="http://www.w3.org/2000/svg" viewBox="0 0 777.31 265.47"><defs><style>.cls-1{font-size:157.49px;}.cls-1,.cls-7{fill:#6c3;}.cls-1,.cls-6{font-family:Comfortaa-Regular, Comfortaa;}.cls-2{letter-spacing:-0.11em;}.cls-3{letter-spacing:-0.03em;}.cls-4{letter-spacing:-0.02em;}.cls-5{letter-spacing:-0.05em;}.cls-6{font-size:104.99px;}</style></defs><title>Combination Mark</title><g id="Layer_2" data-name="Layer 2"><g id="Layer_1-2" data-name="Layer 1"><text class="cls-1" transform="translate(266.57 140.25)"><tspan class="cls-2">V</tspan><tspan x="95.44" y="0">o</tspan><tspan class="cls-3" x="202.06" y="0">l</tspan><tspan class="cls-4" x="241.74" y="0">v</tspan><tspan class="cls-5" x="325.69" y="0">o</tspan><tspan x="424.43" y="0">x</tspan></text><text class="cls-6" transform="translate(435.54 235.13)">Helios</text><path class="cls-7" d="M139.63,177.71a39.42,39.42,0,0,0-3-5.39h0v0l0,0c-12.06-18.74-34.16-33.91-44-55.53S85.9,68.48,79.7,47.07V47h0a40.6,40.6,0,1,0-76,27.83,41.82,41.82,0,0,0,3,5.4h0l0,0,0,0c12.07,18.74,34.14,33.91,44,55.54s6.76,48.24,12.95,69.65v.06h0a41.16,41.16,0,0,0,2.12,5.79,40.6,40.6,0,0,0,73.91-33.62Z"/><circle cx="153.27" cy="58.34" r="41.99"/></g></g></svg>