<svg xmlns="http://www.w3.org/2000/svg" viewBox="0 0 1000 500"><defs><style>.cls-1{font-size:157.49px;font-family:Comfortaa-Regular, Comfortaa;}.cls-1,.cls-7{fill:#fff;}.cls-2{letter-spacing:-0.11em;}.cls-3{letter-spacing:-0.03em;}.cls-4{letter-spacing:-0.02em;}.cls-5{letter-spacing:-0.05em;}.cls-6{fill:#6c3;}</style></defs><title>Combination Mark Black Background</title><g id="Layer_2" data-name="Layer 2"><g id="Layer_1-2" data-name="Layer 1"><rect width="1000" height="500"/><text class="cls-1" transform="translate(195.78 329.91)"><tspan class="cls-2">V</tspan><tspan x="95.44" y="0">o</tspan><tspan class="cls-3" x="202.06" y="0">l</tspan><tspan class="cls-4" x="241.74" y="0">v</tspan><tspan class="cls-5" x="325.69" y="0">o</tspan><tspan x="424.43" y="0">x</tspan></text><path class="cls-6" d="M745.6,211a27.47,27.47,0,0,1,2-3.58h0v0c8-12.43,22.64-22.47,29.16-36.81s4.47-32,8.57-46.16v-.05h0a28.07,28.07,0,0,1,1.41-3.83,26.9,26.9,0,1,1,49,22.28,27.42,27.42,0,0,1-2,3.58h0v0c-8,12.42-22.63,22.48-29.15,36.81s-4.48,32-8.59,46.16v.05h0a26.43,26.43,0,0,1-1.4,3.84,26.91,26.91,0,0,1-49-22.28Z"/><circle class="cls-7" cx="737" cy="132" r="27.99"/></g></g></svg>