<svg xmlns="http://www.w3.org/2000/svg" viewBox="0 0 642.36 271.42"><defs><style>.cls-1{font-size:157.49px;font-family:Comfortaa-Regular, Comfortaa;}.cls-2{letter-spacing:-0.11em;}.cls-3{letter-spacing:-0.03em;}.cls-4{letter-spacing:-0.02em;}.cls-5{letter-spacing:-0.05em;}.cls-6{fill:#6c3;}</style></defs><title>Combination Mark</title><g id="Layer_2" data-name="Layer 2"><g id="Layer_1-2" data-name="Layer 1"><text class="cls-1" transform="translate(0 225.91)"><tspan class="cls-2">V</tspan><tspan x="95.44" y="0">o</tspan><tspan class="cls-3" x="202.06" y="0">l</tspan><tspan class="cls-4" x="241.74" y="0">v</tspan><tspan class="cls-5" x="325.69" y="0">o</tspan><tspan x="424.43" y="0">x</tspan></text><path class="cls-6" d="M549.82,107a27.42,27.42,0,0,1,2-3.58h0l0,0c8-12.43,22.64-22.47,29.16-36.81s4.46-32,8.57-46.16v-.05h0a26.91,26.91,0,1,1,50.39,18.45,27.42,27.42,0,0,1-2,3.58h0l0,0c-8,12.42-22.62,22.48-29.14,36.81s-4.48,32-8.59,46.16v.05h0a26.48,26.48,0,0,1-1.41,3.84,26.9,26.9,0,0,1-49-22.28Z"/><circle cx="541.22" cy="28" r="27.99"/></g></g></svg>