<svg xmlns="http://www.w3.org/2000/svg" viewBox="0 0 350 358"><defs><style>.cls-1{fill:#fff;}.cls-2{fill:#6c3;}</style></defs><title>Logomark Tight White Background</title><g id="Layer_2" data-name="Layer 2"><g id="Layer_1-2" data-name="Layer 1"><rect class="cls-1" width="350" height="358"/><path class="cls-2" d="M217.35,231.94a43.28,43.28,0,0,0-3-5.49h0l0,0,0,0c-12.29-19.09-34.8-34.54-44.82-56.57s-6.87-49.15-13.18-71v-.06h0a41.36,41.36,0,1,0-74.43,33.85h0v0l0,0c12.3,19.09,34.79,34.55,44.81,56.58s6.88,49.14,13.19,71v.07h0a41.81,41.81,0,0,0,2.16,5.89,41.36,41.36,0,0,0,75.3-34.25Z"/><circle cx="231" cy="110" r="42.99"/></g></g></svg>