<svg xmlns="http://www.w3.org/2000/svg" viewBox="0 0 500 478"><defs><style>.cls-1{fill:#6c3;}.cls-2{fill:#fff;}</style></defs><title>Logomark Wide Black Background</title><g id="Layer_2" data-name="Layer 2"><g id="Layer_1-2" data-name="Layer 1"><rect width="500" height="478"/><path class="cls-1" d="M292.54,292.19a41.67,41.67,0,0,0-3-5.5h0v0l0,0c-12.29-19.1-34.8-34.54-44.82-56.57s-6.86-49.15-13.17-71V159h0a42.61,42.61,0,0,0-2.16-5.89A41.36,41.36,0,0,0,154,187.39a42.19,42.19,0,0,0,3,5.5h0l0,0,0,0c12.29,19.09,34.78,34.55,44.8,56.58s6.89,49.14,13.2,71v.07h0a41.81,41.81,0,0,0,2.16,5.89,41.36,41.36,0,0,0,75.29-34.25Z"/><circle class="cls-2" cx="306" cy="170" r="42.99"/></g></g></svg>