<svg xmlns="http://www.w3.org/2000/svg" viewBox="0 0 198.71 223.37"><defs><style>.cls-1{fill:#6c3;}</style></defs><title>Logomark</title><g id="Layer_2" data-name="Layer 2"><g id="Layer_1-2" data-name="Layer 1"><path class="cls-1" d="M56.46,164.88a41.67,41.67,0,0,1,3-5.5h0v0l0,0c12.29-19.09,34.8-34.54,44.82-56.57s6.86-49.14,13.17-71v-.07h0a42.15,42.15,0,0,1,2.16-5.89A41.36,41.36,0,1,1,195,60.08a42.85,42.85,0,0,1-3,5.5h0l0,0,0,0c-12.29,19.1-34.78,34.55-44.8,56.58s-6.89,49.14-13.2,71v.06h0a40.92,40.92,0,0,1-2.16,5.89,41.36,41.36,0,1,1-75.29-34.24Z"/><circle cx="43" cy="43" r="42.99"/></g></g></svg>