<svg xmlns="http://www.w3.org/2000/svg" viewBox="0 0 350 358"><defs><style>.cls-1{fill:#666;}.cls-2{fill:#6c3;}.cls-3{fill:#fff;}</style></defs><title>Logomark Tight Grey Background</title><g id="Layer_2" data-name="Layer 2"><g id="Layer_1-2" data-name="Layer 1"><rect class="cls-1" width="350" height="358"/><path class="cls-2" d="M217.35,231.84a43.41,43.41,0,0,0-3-5.5h0l0,0,0,0c-12.29-19.09-34.8-34.54-44.82-56.57s-6.87-49.15-13.18-71v-.06h0a41.81,41.81,0,0,0-2.16-5.89,41.36,41.36,0,1,0-72.27,39.74h0v0l0,0c12.3,19.09,34.79,34.55,44.81,56.58s6.88,49.14,13.19,71v.06h0a41.81,41.81,0,0,0,2.16,5.89,41.36,41.36,0,0,0,75.3-34.24Z"/><circle class="cls-3" cx="231" cy="110" r="42.99"/></g></g></svg>