<svg xmlns="http://www.w3.org/2000/svg" viewBox="0 0 199.37 223.39"><defs><style>.cls-1{fill:#6c3;}</style></defs><title>Logomark</title><g id="Layer_2" data-name="Layer 2"><g id="Layer_1-2" data-name="Layer 1"><path class="cls-1" d="M142.25,164.9a42.19,42.19,0,0,0-3-5.5h0l0,0,0,0c-12.29-19.09-34.8-34.54-44.82-56.57s-6.87-49.15-13.18-71v-.06h0A41.81,41.81,0,0,0,79,25.85,41.36,41.36,0,0,0,3.72,60.09a40.43,40.43,0,0,0,3,5.5h0v0l0,0c12.29,19.1,34.78,34.55,44.8,56.58s6.88,49.14,13.19,71v.06h0a41.36,41.36,0,1,0,77.46-28.35Z"/><circle cx="156.37" cy="43" r="42.99"/></g></g></svg>