<svg xmlns="http://www.w3.org/2000/svg" viewBox="0 0 500 478"><defs><style>.cls-1{fill:#fff;}.cls-2{fill:#6c3;}</style></defs><title>Logomark Wide White Background</title><g id="Layer_2" data-name="Layer 2"><g id="Layer_1-2" data-name="Layer 1"><rect class="cls-1" width="500" height="478"/><path class="cls-2" d="M206.75,291.88a42.85,42.85,0,0,1,3-5.5h0l0,0,0,0c12.29-19.09,34.8-34.54,44.82-56.57s6.87-49.14,13.18-71v-.07h0a40.92,40.92,0,0,1,2.16-5.89,41.36,41.36,0,1,1,72.27,39.74h0v0l0,0c-12.3,19.1-34.79,34.55-44.81,56.58s-6.88,49.14-13.19,71v.06h0a42.15,42.15,0,0,1-2.16,5.89,41.36,41.36,0,0,1-75.3-34.24Z"/><circle cx="193" cy="170" r="42.99"/></g></g></svg>